<svg width="321" height="268" viewBox="0 0 321 268" fill="none" xmlns="http://www.w3.org/2000/svg">
<path d="M222.694 351.382C197.399 349.338 176.15 325.591 176.884 298.808L178.641 104.771C178.828 78.2703 200.001 57.5452 225.603 60.1859C250.899 62.2308 272.147 85.9771 271.413 112.76L269.656 306.797C269.23 334.176 248.297 354.023 222.694 351.382Z" fill="#EEEEEE" fill-opacity="0.2"/>
<path d="M426.944 246.48C413.941 268.274 385.086 274.1 363.388 258.884L203.436 147.477C181.738 132.261 174.168 101.462 187.171 79.6685C200.174 57.8751 229.029 52.0488 250.728 67.2648L410.372 178.075C432.377 193.887 439.64 224.091 426.944 246.48Z" fill="#EEEEEE" fill-opacity="0.2"/>
<path fill-rule="evenodd" clip-rule="evenodd" d="M270.676 194.306L203.434 147.472C181.736 132.256 174.165 101.456 187.169 79.6628C191.215 72.8809 196.797 67.6453 203.22 64.1089C209.894 60.8447 217.529 59.3532 225.604 60.1861C250.899 62.2309 272.148 85.9772 271.414 112.76L270.676 194.306Z" fill="#EEEEEE" fill-opacity="0.2"/>
<path d="M262.947 331.386C249.943 353.18 221.088 359.006 199.39 343.79L39.7459 232.98C18.0478 217.764 10.4773 186.964 23.4805 165.171C36.4837 143.377 65.339 137.551 87.0371 152.767L246.681 263.577C268.926 278.511 275.95 309.593 262.947 331.386Z" fill="#EEEEEE" fill-opacity="0.2"/>
<path fill-rule="evenodd" clip-rule="evenodd" d="M176.886 298.807C176.152 325.59 197.401 349.337 222.696 351.381C244.146 353.594 262.318 340.022 267.9 319.46C273.089 299.389 265.106 275.943 246.682 263.574L177.639 215.651L176.886 298.807Z" fill="#EEEEEE" fill-opacity="0.2"/>
</svg>
